<?xml version="1.0" encoding="UTF-8" standalone="no"?>
<!-- Created with Vectornator for iOS (http://vectornator.io/) -->
<!DOCTYPE svg PUBLIC "-//W3C//DTD SVG 1.1//EN" "http://www.w3.org/Graphics/SVG/1.1/DTD/svg11.dtd">
<svg viewBox="0 0 180 180" version="1.1" width="100%" xmlns:xlink="http://www.w3.org/1999/xlink"
    xmlns:vectornator="http://vectornator.io"
    style="fill-rule:nonzero;clip-rule:evenodd;stroke-linecap:round;stroke-linejoin:round;"
    xmlns="http://www.w3.org/2000/svg" height="100%" xml:space="preserve">
    <g id="Layer 1" vectornator:layerName="Layer 1" visibility="hidden">
        <path opacity="1" stroke="#000000" stroke-width="0.289849" fill="#000000" stroke-linecap="round"
            d="M24.0761+73.1291C22.1239+73.1291+20.5482+74.4568+20.5482+76.0986L20.5482+134.449C20.5482+136.09+22.1239+137.418+24.0761+137.418L54.6343+137.418C56.5865+137.418+58.1622+136.09+58.1622+134.449L58.1622+76.0986C58.1622+74.4568+56.5865+73.1291+54.6343+73.1291L24.0761+73.1291ZM39.3552+78.1798C43.8968+78.1798+47.5785+81.8615+47.5785+86.4031C47.5785+90.9448+43.8968+94.6264+39.3552+94.6264C34.8135+94.6264+31.1319+90.9448+31.1319+86.4031C31.1319+81.8615+34.8135+78.1798+39.3552+78.1798ZM39.3552+103.484C46.1016+103.484+51.5632+108.946+51.5632+115.692C51.5632+122.439+46.1016+127.9+39.3552+127.9C32.6088+127.9+27.1471+122.439+27.1471+115.692C27.1471+108.946+32.6088+103.484+39.3552+103.484ZM39.3552+107.469C34.8135+107.469+31.1319+111.151+31.1319+115.692C31.1319+120.234+34.8135+123.916+39.3552+123.916C43.8968+123.916+47.5785+120.234+47.5785+115.692C47.5785+111.151+43.8968+107.469+39.3552+107.469Z"
            stroke-linejoin="round" />
        <path
            d="M134.024+73.2478C128.944+73.2478+124.711+77.3622+124.711+82.4353C124.711+87.5085+128.957+91.6228+134.024+91.6228C139.097+91.6228+143.211+87.5085+143.211+82.4353C143.211+77.3622+139.103+73.2478+134.024+73.2478Z"
            opacity="1" fill="#000000" />
        <path opacity="1"
            d="M113.055+82.9747C111.755+83.1158+110.503+83.7493+109.618+84.8773C107.844+87.1424+108.176+90.4634+110.368+92.294L116.899+97.7759C118.396+99.0265+120.039+100.014+121.743+100.904L121.649+133.505C121.649+135.826+123.463+137.729+125.711+137.729L127.649+137.729C129.898+137.729+131.743+135.826+131.743+133.505L131.743+118.768L135.805+118.768L135.805+133.505C135.805+135.826+137.65+137.729+139.899+137.729L141.836+137.729C144.085+137.729+145.93+135.826+145.93+133.505L145.93+100.904C147.634+100.014+149.278+99.0257+150.774+97.7759L157.305+92.294C159.836+90.4608+160.058+87.1424+158.399+84.8773C156.626+82.62+153.405+82.2735+151.211+84.1033L144.68+89.5853C138.661+94.6148+129.36+94.6148+123.336+89.5853L116.805+84.1033C115.711+83.1881+114.355+82.8336+113.055+82.9747Z"
            fill="#000000" />
        <path opacity="1" fill="#000000"
            d="M86.3125+10.4375C61.1634+10.4504+36.0625+23.2788+36.0625+48.9062L36.0327+57.2826L42.1399+57.3451L42.0625+48.9375C42.0627+5.64211+130.571+5.60933+130.781+48.875L130.812+71.4994L136.812+71.4994L136.781+48.875C136.657+23.2532+111.462+10.4246+86.3125+10.4375Z" />
        <path
            d="M37.3239+50.0607L41.3567+50.0607C42.2664+50.0607+43.0039+50.7982+43.0039+51.7079L43.0039+58.24L35.0039+58.24L35.0039+52.3807C35.0039+51.0994+36.0426+50.0607+37.3239+50.0607Z"
            opacity="1" fill="#000000" />
        <path opacity="1" fill="#000000"
            d="M36.9185+57.1079L41.0892+57.1079L41.0892+61.4101C41.0892+61.8766+40.7522+62.2548+40.3364+62.2548L37.6713+62.2548C37.2555+62.2548+36.9185+61.8766+36.9185+61.4101L36.9185+57.1079Z" />
        <path opacity="1" fill="#000000"
            d="M41.0892+66.5514C41.0892+66.9611+40.7522+67.2933+40.3364+67.2933L37.6713+67.2933C37.2555+67.2933+36.9185+66.9611+36.9185+66.5514L36.9185+63.4549C36.9185+63.0782+37.2283+62.7729+37.6105+62.7729L40.3972+62.7729C40.7794+62.7729+41.0892+63.0782+41.0892+63.4549L41.0892+66.5514Z" />
        <path opacity="1"
            d="M41.0892+68.4016C41.0892+68.0669+40.7794+67.7956+40.3972+67.7956L37.6105+67.7956C37.2283+67.7956+36.9185+68.0669+36.9185+68.4016C36.9185+68.4016+36.9185+67.8483+36.9185+70.2038C36.9185+71.8758+39.0199+72.361+40.2395+71.661C40.738+71.3748+41.0892+70.8905+41.0892+70.2083C41.0892+67.8572+41.0892+68.4016+41.0892+68.4016Z"
            fill="#000000" />
    </g>
    <g vectornator:layerName="Layer 2" id="Layer 2">
        <g opacity="1">
            <path fill="#000000" opacity="1"
                d="M17.8526+158.791L16.2656+151.408L16.2196+151.408L14.6326+158.791L17.8526+158.791ZM18.2896+148.556L22.6366+164.978L19.1866+164.978L18.4276+161.505L14.0576+161.505L13.2986+164.978L9.84865+164.978L14.1956+148.556L18.2896+148.556Z" />
            <path
                d="M30.0426+163.529L30.0426+164.978L33.0786+164.978L33.0786+152.604L29.9046+152.604L29.9046+160.815C29.9046+162.179+29.345+162.862+28.2256+162.862C27.7503+162.862+27.4053+162.735+27.1906+162.482C26.976+162.229+26.8686+161.781+26.8686+161.137L26.8686+152.604L23.6946+152.604L23.6946+161.781C23.6946+163.023+23.9668+163.908+24.5111+164.437C25.0555+164.966+25.8336+165.231+26.8456+165.231C27.5356+165.231+28.149+165.1+28.6856+164.84C29.2223+164.579+29.6593+164.142+29.9966+163.529L30.0426+163.529Z"
                opacity="1" fill="#000000" />
            <path fill="#000000" opacity="1"
                d="M35.1946+152.604L35.1946+164.978L38.3686+164.978L38.3686+157.549C38.3686+157.135+38.4376+156.786+38.5756+156.502C38.7136+156.219+38.8976+155.989+39.1276+155.812C39.3576+155.636+39.6106+155.509+39.8866+155.433C40.1626+155.356+40.4386+155.318+40.7146+155.318C40.8833+155.318+41.0481+155.322+41.2091+155.329C41.3701+155.337+41.535+155.348+41.7036+155.364L41.7036+152.328C41.6116+152.312+41.5158+152.301+41.4161+152.293C41.3165+152.286+41.2206+152.282+41.1286+152.282C40.4693+152.282+39.9096+152.462+39.4496+152.822C38.9896+153.183+38.5986+153.662+38.2766+154.26L38.2306+154.26L38.2306+152.604L35.1946+152.604Z" />
            <path fill="#000000" opacity="1"
                d="M48.6266+158.791L48.6266+161.229C48.6266+161.566+48.5653+161.857+48.4426+162.103C48.32+162.348+48.1628+162.547+47.9711+162.701C47.7795+162.854+47.5686+162.965+47.3386+163.034C47.1086+163.103+46.8863+163.138+46.6716+163.138C46.2423+163.138+45.9356+162.969+45.7516+162.632C45.5676+162.294+45.4756+161.888+45.4756+161.413C45.4756+160.861+45.6136+160.424+45.8896+160.102C46.1656+159.78+46.6256+159.55+47.2696+159.412C47.469+159.366+47.6913+159.293+47.9366+159.193C48.182+159.094+48.412+158.959+48.6266+158.791ZM42.8306+156.399L45.6826+156.399L45.6826+156.054C45.6826+155.563+45.8053+155.172+46.0506+154.881C46.296+154.589+46.664+154.444+47.1546+154.444C47.6913+154.444+48.0708+154.578+48.2931+154.846C48.5155+155.115+48.6266+155.486+48.6266+155.962C48.6266+156.376+48.5346+156.69+48.3506+156.905C48.1666+157.119+47.837+157.288+47.3616+157.411L45.5676+157.894C45.0156+158.047+44.5441+158.223+44.1531+158.423C43.7621+158.622+43.4401+158.871+43.1871+159.17C42.9341+159.469+42.7463+159.83+42.6236+160.251C42.501+160.673+42.4396+161.175+42.4396+161.758C42.4396+162.172+42.4933+162.59+42.6006+163.011C42.708+163.433+42.8766+163.812+43.1066+164.15C43.3366+164.487+43.6433+164.752+44.0266+164.943C44.41+165.135+44.8776+165.231+45.4296+165.231C46.1963+165.231+46.8211+165.135+47.3041+164.943C47.7871+164.752+48.2126+164.334+48.5806+163.69L48.6266+163.69C48.6726+163.904+48.7225+164.123+48.7761+164.345C48.8298+164.568+48.9103+164.778+49.0176+164.978L52.0536+164.978C51.9003+164.61+51.7968+164.265+51.7431+163.943C51.6895+163.621+51.6626+163.168+51.6626+162.586L51.6626+156.077C51.6626+155.525+51.6051+155.015+51.4901+154.547C51.3751+154.08+51.1566+153.677+50.8346+153.34C50.5126+153.002+50.0603+152.742+49.4776+152.558C48.895+152.374+48.1283+152.282+47.1776+152.282C46.5796+152.282+46.0161+152.347+45.4871+152.477C44.9581+152.608+44.4981+152.822+44.1071+153.121C43.7161+153.42+43.4056+153.811+43.1756+154.294C42.9456+154.777+42.8306+155.379+42.8306+156.1L42.8306+156.399Z" />
            <path d="M54.0316+148.556L54.0316+164.978L57.2056+164.978L57.2056+148.556L54.0316+148.556Z" fill="#000000"
                opacity="1" />
            <path opacity="1"
                d="M77.5836+154.099L80.8956+154.099C80.8956+153.501+80.8535+152.861+80.7691+152.178C80.6848+151.496+80.474+150.86+80.1366+150.269C79.7993+149.679+79.2895+149.192+78.6071+148.809C77.9248+148.425+76.9933+148.234+75.8126+148.234C74.5706+148.234+73.5816+148.445+72.8456+148.866C72.1096+149.288+71.5461+149.874+71.1551+150.626C70.7641+151.377+70.5111+152.278+70.3961+153.328C70.2811+154.379+70.2236+155.525+70.2236+156.767C70.2236+158.024+70.2811+159.174+70.3961+160.217C70.5111+161.259+70.7641+162.156+71.1551+162.908C71.5461+163.659+72.1096+164.234+72.8456+164.633C73.5816+165.031+74.5706+165.231+75.8126+165.231C76.9013+165.231+77.7868+165.062+78.4691+164.725C79.1515+164.387+79.6805+163.92+80.0561+163.322C80.4318+162.724+80.6886+162.026+80.8266+161.229C80.9646+160.431+81.0336+159.588+81.0336+158.699L77.7216+158.699C77.7216+159.588+77.668+160.305+77.5606+160.849C77.4533+161.394+77.3076+161.815+77.1236+162.114C76.9396+162.413+76.7211+162.613+76.4681+162.712C76.2151+162.812+75.943+162.862+75.6516+162.862C75.299+162.862+74.9885+162.789+74.7201+162.643C74.4518+162.498+74.2295+162.214+74.0531+161.792C73.8768+161.371+73.7465+160.776+73.6621+160.01C73.5778+159.243+73.5356+158.239+73.5356+156.997C73.5356+155.831+73.5663+154.846+73.6276+154.041C73.689+153.236+73.7963+152.585+73.9496+152.086C74.103+151.588+74.3138+151.228+74.5821+151.005C74.8505+150.783+75.1916+150.672+75.6056+150.672C76.357+150.672+76.8745+150.944+77.1581+151.488C77.4418+152.033+77.5836+152.903+77.5836+154.099Z"
                fill="#000000" />
            <path
                d="M85.5876+158.791C85.5876+158.162+85.603+157.579+85.6336+157.043C85.6643+156.506+85.7371+156.046+85.8521+155.663C85.9671+155.279+86.1396+154.98+86.3696+154.766C86.5996+154.551+86.9063+154.444+87.2896+154.444C87.9336+154.444+88.3783+154.781+88.6236+155.456C88.869+156.13+88.9916+157.242+88.9916+158.791C88.9916+160.339+88.869+161.451+88.6236+162.126C88.3783+162.8+87.9336+163.138+87.2896+163.138C86.9063+163.138+86.5996+163.03+86.3696+162.816C86.1396+162.601+85.9671+162.302+85.8521+161.919C85.7371+161.535+85.6643+161.075+85.6336+160.539C85.603+160.002+85.5876+159.419+85.5876+158.791ZM82.4136+158.791C82.4136+159.864+82.4903+160.811+82.6436+161.631C82.797+162.452+83.0576+163.134+83.4256+163.678C83.7936+164.223+84.292+164.621+84.9206+164.874C85.5493+165.127+86.339+165.246+87.2896+165.231C88.1943+165.231+88.9571+165.1+89.5781+164.84C90.1991+164.579+90.7013+164.177+91.0846+163.632C91.468+163.088+91.744+162.409+91.9126+161.597C92.0813+160.784+92.1656+159.849+92.1656+158.791C92.1656+157.702+92.089+156.751+91.9356+155.939C91.7823+155.126+91.5216+154.444+91.1536+153.892C90.7856+153.34+90.2873+152.93+89.6586+152.661C89.03+152.393+88.2403+152.266+87.2896+152.282C86.385+152.282+85.6221+152.424+85.0011+152.707C84.3801+152.991+83.878+153.405+83.4946+153.949C83.1113+154.494+82.8353+155.172+82.6666+155.985C82.498+156.797+82.4136+157.733+82.4136+158.791Z"
                opacity="1" fill="#000000" />
            <path
                d="M93.8676+152.604L93.8676+164.978L97.0416+164.978L97.0416+156.767C97.0416+155.402+97.6013+154.72+98.7206+154.72C99.196+154.72+99.541+154.846+99.7556+155.099C99.9703+155.352+100.078+155.801+100.078+156.445L100.078+164.978L103.252+164.978L103.252+155.801C103.252+154.559+102.979+153.662+102.435+153.11C101.891+152.558+101.113+152.282+100.101+152.282C99.4106+152.282+98.7973+152.424+98.2606+152.707C97.724+152.991+97.287+153.439+96.9496+154.053L96.9036+154.053L96.9036+152.604L93.8676+152.604Z"
                opacity="1" fill="#000000" />
            <path
                d="M105.368+152.604L105.368+164.978L108.542+164.978L108.542+156.767C108.542+155.402+109.101+154.72+110.221+154.72C110.696+154.72+111.041+154.846+111.256+155.099C111.47+155.352+111.578+155.801+111.578+156.445L111.578+164.978L114.752+164.978L114.752+155.801C114.752+154.559+114.479+153.662+113.935+153.11C113.391+152.558+112.613+152.282+111.601+152.282C110.911+152.282+110.297+152.424+109.761+152.707C109.224+152.991+108.787+153.439+108.45+154.053L108.404+154.053L108.404+152.604L105.368+152.604Z"
                fill="#000000" opacity="1" />
            <path
                d="M122.825+157.388L119.582+157.388L119.582+156.905C119.582+156.613+119.608+156.322+119.662+156.031C119.716+155.739+119.804+155.475+119.927+155.237C120.049+155+120.214+154.808+120.421+154.662C120.628+154.517+120.893+154.444+121.215+154.444C121.537+154.444+121.801+154.509+122.008+154.639C122.215+154.77+122.376+154.961+122.491+155.214C122.606+155.467+122.687+155.774+122.733+156.134C122.779+156.495+122.809+156.912+122.825+157.388ZM119.582+159.274L125.861+159.274L125.861+158.561C125.861+157.61+125.799+156.748+125.677+155.973C125.554+155.199+125.324+154.54+124.987+153.995C124.649+153.451+124.185+153.029+123.595+152.73C123.005+152.431+122.25+152.282+121.33+152.282C120.256+152.282+119.398+152.458+118.754+152.811C118.11+153.163+117.615+153.639+117.27+154.237C116.925+154.835+116.695+155.517+116.58+156.284C116.465+157.05+116.408+157.848+116.408+158.676C116.408+159.458+116.442+160.24+116.511+161.022C116.58+161.804+116.768+162.509+117.075+163.138C117.381+163.766+117.857+164.272+118.501+164.656C119.145+165.039+120.042+165.231+121.192+165.231C122.71+165.231+123.821+164.855+124.527+164.104C125.232+163.352+125.615+162.256+125.677+160.815L122.825+160.815C122.733+161.597+122.564+162.179+122.319+162.563C122.073+162.946+121.682+163.138+121.146+163.138C120.854+163.138+120.609+163.057+120.41+162.896C120.21+162.735+120.049+162.521+119.927+162.252C119.804+161.984+119.716+161.677+119.662+161.332C119.608+160.987+119.582+160.631+119.582+160.263L119.582+159.274Z"
                fill="#000000" opacity="1" />
            <path
                d="M133.474+157.066L136.51+157.066C136.51+155.594+136.138+154.428+135.394+153.57C134.65+152.711+133.543+152.282+132.071+152.282C131.335+152.282+130.66+152.381+130.047+152.581C129.433+152.78+128.904+153.129+128.46+153.627C128.015+154.126+127.67+154.793+127.425+155.628C127.179+156.464+127.057+157.518+127.057+158.791C127.057+160.033+127.156+161.072+127.356+161.907C127.555+162.743+127.85+163.41+128.241+163.908C128.632+164.407+129.123+164.752+129.713+164.943C130.303+165.135+130.997+165.231+131.795+165.231C133.481+165.231+134.689+164.805+135.417+163.954C136.145+163.103+136.51+161.865+136.51+160.24L133.474+160.24C133.474+161.252+133.351+161.988+133.106+162.448C132.86+162.908+132.469+163.138+131.933+163.138C131.58+163.138+131.292+163.057+131.07+162.896C130.848+162.735+130.675+162.478+130.553+162.126C130.43+161.773+130.346+161.325+130.3+160.78C130.254+160.236+130.231+159.58+130.231+158.814C130.231+158.093+130.254+157.468+130.3+156.939C130.346+156.41+130.43+155.973+130.553+155.628C130.675+155.283+130.859+155.023+131.105+154.846C131.35+154.67+131.664+154.582+132.048+154.582C132.354+154.582+132.6+154.655+132.784+154.8C132.968+154.946+133.109+155.138+133.209+155.375C133.309+155.613+133.378+155.877+133.416+156.169C133.454+156.46+133.474+156.759+133.474+157.066Z"
                fill="#000000" opacity="1" />
            <path fill="#000000"
                d="M138.856+149.062L138.856+152.604L137.246+152.604L137.246+154.766L138.856+154.766L138.856+161.85C138.856+162.478+138.894+163+138.971+163.414C139.047+163.828+139.189+164.161+139.396+164.414C139.603+164.667+139.902+164.836+140.293+164.92C140.684+165.005+141.186+165.047+141.8+165.047C142.168+165.047+142.516+165.035+142.846+165.012C143.176+164.989+143.517+164.978+143.87+164.978L143.87+162.77C143.762+162.785+143.647+162.797+143.525+162.804C143.402+162.812+143.279+162.816+143.157+162.816C142.697+162.816+142.394+162.712+142.248+162.505C142.102+162.298+142.03+161.949+142.03+161.459L142.03+154.766L143.87+154.766L143.87+152.604L142.03+152.604L142.03+149.062L138.856+149.062Z"
                opacity="1" />
            <path opacity="1" fill="#000000"
                d="M147.734+158.791C147.734+158.162+147.749+157.579+147.78+157.043C147.81+156.506+147.883+156.046+147.998+155.663C148.113+155.279+148.286+154.98+148.516+154.766C148.746+154.551+149.052+154.444+149.436+154.444C150.08+154.444+150.524+154.781+150.77+155.456C151.015+156.13+151.138+157.242+151.138+158.791C151.138+160.339+151.015+161.451+150.77+162.126C150.524+162.8+150.08+163.138+149.436+163.138C149.052+163.138+148.746+163.03+148.516+162.816C148.286+162.601+148.113+162.302+147.998+161.919C147.883+161.535+147.81+161.075+147.78+160.539C147.749+160.002+147.734+159.419+147.734+158.791ZM144.56+158.791C144.56+159.864+144.636+160.811+144.79+161.631C144.943+162.452+145.204+163.134+145.572+163.678C145.94+164.223+146.438+164.621+147.067+164.874C147.695+165.127+148.485+165.246+149.436+165.231C150.34+165.231+151.103+165.1+151.724+164.84C152.345+164.579+152.847+164.177+153.231+163.632C153.614+163.088+153.89+162.409+154.059+161.597C154.227+160.784+154.312+159.849+154.312+158.791C154.312+157.702+154.235+156.751+154.082+155.939C153.928+155.126+153.668+154.444+153.3+153.892C152.932+153.34+152.433+152.93+151.805+152.661C151.176+152.393+150.386+152.266+149.436+152.282C148.531+152.282+147.768+152.424+147.147+152.707C146.526+152.991+146.024+153.405+145.641+153.949C145.257+154.494+144.981+155.172+144.813+155.985C144.644+156.797+144.56+157.733+144.56+158.791Z" />
            <path opacity="1" fill="#000000"
                d="M156.014+152.604L156.014+164.978L159.188+164.978L159.188+157.549C159.188+157.135+159.257+156.786+159.395+156.502C159.533+156.219+159.717+155.989+159.947+155.812C160.177+155.636+160.43+155.509+160.706+155.433C160.982+155.356+161.258+155.318+161.534+155.318C161.702+155.318+161.867+155.322+162.028+155.329C162.189+155.337+162.354+155.348+162.523+155.364L162.523+152.328C162.431+152.312+162.335+152.301+162.235+152.293C162.135+152.286+162.04+152.282+161.948+152.282C161.288+152.282+160.729+152.462+160.269+152.822C159.809+153.183+159.418+153.662+159.096+154.26L159.05+154.26L159.05+152.604L156.014+152.604Z" />
            <path fill="#000000" opacity="1"
                d="M165.996+160.93L163.144+160.93L163.144+161.367C163.144+161.965+163.213+162.505+163.351+162.988C163.489+163.471+163.73+163.881+164.075+164.219C164.42+164.556+164.888+164.809+165.478+164.978C166.068+165.146+166.808+165.231+167.698+165.231C168.372+165.231+168.989+165.162+169.549+165.024C170.109+164.886+170.592+164.656+170.998+164.334C171.404+164.012+171.723+163.609+171.953+163.126C172.183+162.643+172.298+162.072+172.298+161.413C172.298+160.477+172.091+159.738+171.677+159.193C171.263+158.649+170.557+158.208+169.561+157.871L167.652+157.227C167.115+157.058+166.751+156.851+166.559+156.606C166.367+156.36+166.272+156.084+166.272+155.778C166.272+155.333+166.421+155+166.72+154.777C167.019+154.555+167.368+154.444+167.767+154.444C168.288+154.444+168.652+154.593+168.859+154.892C169.066+155.191+169.17+155.663+169.17+156.307L172.022+156.307L172.022+155.801C172.022+154.681+171.677+153.815+170.987+153.202C170.297+152.588+169.231+152.282+167.79+152.282C166.977+152.282+166.283+152.381+165.708+152.581C165.133+152.78+164.662+153.048+164.294+153.386C163.926+153.723+163.657+154.118+163.489+154.57C163.32+155.023+163.236+155.502+163.236+156.008C163.236+156.882+163.458+157.599+163.903+158.158C164.347+158.718+165.007+159.151+165.881+159.458L168.112+160.263C168.418+160.385+168.687+160.55+168.917+160.757C169.147+160.964+169.262+161.267+169.262+161.666C169.262+162.156+169.116+162.524+168.825+162.77C168.533+163.015+168.142+163.138+167.652+163.138C167.115+163.138+166.705+162.973+166.421+162.643C166.137+162.314+165.996+161.88+165.996+161.344L165.996+160.93Z" />
        </g>
        <path stroke="#000000" stroke-linejoin="round" stroke-width="0.289849"
            d="M24.0709+67.7104C22.1187+67.7104+20.543+69.0381+20.543+70.6799L20.543+129.03C20.543+130.672+22.1187+131.999+24.0709+131.999L54.6291+131.999C56.5813+131.999+58.157+130.672+58.157+129.03L58.157+70.6799C58.157+69.0381+56.5813+67.7104+54.6291+67.7104L24.0709+67.7104ZM39.35+72.7611C43.8916+72.7611+47.5733+76.4428+47.5733+80.9844C47.5733+85.526+43.8916+89.2077+39.35+89.2077C34.8084+89.2077+31.1267+85.526+31.1267+80.9844C31.1267+76.4428+34.8084+72.7611+39.35+72.7611ZM39.35+98.0655C46.0964+98.0655+51.5581+103.527+51.5581+110.274C51.5581+117.02+46.0964+122.482+39.35+122.482C32.6036+122.482+27.1419+117.02+27.1419+110.274C27.1419+103.527+32.6036+98.0655+39.35+98.0655ZM39.35+102.05C34.8084+102.05+31.1267+105.732+31.1267+110.274C31.1267+114.815+34.8084+118.497+39.35+118.497C43.8916+118.497+47.5733+114.815+47.5733+110.274C47.5733+105.732+43.8916+102.05+39.35+102.05Z"
            stroke-linecap="round" fill="#000000" opacity="1" />
        <path opacity="1"
            d="M134.019+67.8291C128.939+67.8291+124.706+71.9435+124.706+77.0166C124.706+82.0898+128.952+86.2041+134.019+86.2041C139.092+86.2041+143.206+82.0898+143.206+77.0166C143.206+71.9435+139.098+67.8291+134.019+67.8291Z"
            fill="#000000" />
        <path fill="#000000"
            d="M113.05+77.556C111.75+77.6971+110.498+78.3306+109.612+79.4585C107.838+81.7237+108.171+85.0447+110.362+86.8753L116.894+92.3572C118.391+93.6078+120.034+94.5948+121.737+95.4851L121.644+128.086C121.644+130.407+123.457+132.311+125.706+132.311L127.644+132.311C129.892+132.311+131.737+130.407+131.737+128.086L131.737+113.35L135.8+113.35L135.8+128.086C135.8+130.407+137.645+132.311+139.894+132.311L141.831+132.311C144.08+132.311+145.925+130.407+145.925+128.086L145.925+95.4851C147.629+94.5953+149.273+93.607+150.769+92.3572L157.3+86.8753C159.831+85.042+160.053+81.7237+158.394+79.4585C156.621+77.2013+153.4+76.8548+151.206+78.6846L144.675+84.1665C138.656+89.1961+129.355+89.1961+123.331+84.1665L116.8+78.6846C115.706+77.7693+114.35+77.4149+113.05+77.556Z"
            opacity="1" />
        <path opacity="1"
            d="M86.3073+5.01878C61.1582+5.03171+36.0573+17.8601+36.0573+43.4875L36.0276+44.5806L42.1348+44.6431L42.0573+43.5188C42.0575+0.223392+130.566+0.190616+130.776+43.4563L130.807+66.0807L136.807+66.0807L136.776+43.4563C136.651+17.8345+111.456+5.00586+86.3073+5.01878Z"
            fill="#000000" />
        <path
            d="M37.0997+42.1134L41.1325+42.1134C42.0423+42.1134+42.9987+44.3795+42.9987+45.2892L42.9987+50.5084L34.9987+50.5084L34.9987+45.962C34.9987+44.6807+35.8184+42.1134+37.0997+42.1134Z"
            fill="#000000" opacity="1" />
        <path
            d="M36.9133+50.5229L41.084+50.5229L41.084+54.3254C41.084+54.7919+40.747+55.1701+40.3312+55.1701L37.6661+55.1701C37.2504+55.1701+36.9133+54.7919+36.9133+54.3254L36.9133+50.5229Z"
            opacity="1" fill="#000000" />
        <path opacity="1" fill="#000000"
            d="M41.084+59.8867C41.084+60.2965+40.747+60.6287+40.3312+60.6287L37.6661+60.6287C37.2504+60.6287+36.9133+60.2965+36.9133+59.8867L36.9133+57.3644C36.9133+56.9878+37.2232+56.6824+37.6053+56.6824L40.392+56.6824C40.7742+56.6824+41.084+56.9878+41.084+57.3644L41.084+59.8867Z" />
        <path opacity="1" fill="#000000"
            d="M41.084+62.9828C41.084+62.6482+40.7742+62.3768+40.392+62.3768L37.6053+62.3768C37.2232+62.3768+36.9133+62.6482+36.9133+62.9828C36.9133+62.9828+36.9134+62.4296+36.9134+64.7851C36.9134+66.4571+39.0148+66.9423+40.2343+66.2423C40.7329+65.9561+41.084+65.4718+41.084+64.7896C41.084+62.4385+41.084+62.9828+41.084+62.9828Z" />
        <path opacity="1"
            d="M61.4188+141.288L61.3717+153.062L66.0259+153.062L66.0259+145.354L87.3125+145.354L87.3125+141.25L61.4188+141.288Z"
            fill="#000000" />
        <path
            d="M61.3717+160.353L61.3717+172.438L87.3125+172.438L87.3125+168.177L66.0259+168.177L66.0259+160.353L61.3717+160.353Z"
            opacity="1" fill="#000000" />
        <path opacity="1" fill="#000000"
            d="M59.4307+155.38L68.7948+155.38L68.7948+158.329L59.4307+158.329L59.4307+155.38Z" />
        <path d="M60.3466+153.294L60.3296+160.053L57.6882+156.809L60.3466+153.294Z" opacity="1" fill="#000000" />
    </g>
</svg>